<?xml version="1.0" standalone="no"?><svg xmlns="http://www.w3.org/2000/svg" viewBox="0 0 1440 320"><path fill="#e7008a" fill-opacity="1" d="M0,128L8.3,149.3C16.6,171,33,213,50,229.3C66.2,245,83,235,99,192C115.9,149,132,75,149,74.7C165.5,75,182,149,199,197.3C215.2,245,232,267,248,256C264.8,245,281,203,298,181.3C314.5,160,331,160,348,149.3C364.1,139,381,117,397,106.7C413.8,96,430,96,447,96C463.4,96,480,96,497,101.3C513.1,107,530,117,546,154.7C562.8,192,579,256,596,250.7C612.4,245,629,171,646,160C662.1,149,679,203,695,192C711.7,181,728,107,745,80C761.4,53,778,75,794,96C811,117,828,139,844,128C860.7,117,877,75,894,85.3C910.3,96,927,160,943,181.3C960,203,977,181,993,170.7C1009.7,160,1026,160,1043,154.7C1059.3,149,1076,139,1092,149.3C1109,160,1126,192,1142,218.7C1158.6,245,1175,267,1192,250.7C1208.3,235,1225,181,1241,176C1257.9,171,1274,213,1291,192C1307.6,171,1324,85,1341,42.7C1357.2,0,1374,0,1390,48C1406.9,96,1423,192,1432,240L1440,288L1440,320L1431.7,320C1423.4,320,1407,320,1390,320C1373.8,320,1357,320,1341,320C1324.1,320,1308,320,1291,320C1274.5,320,1258,320,1241,320C1224.8,320,1208,320,1192,320C1175.2,320,1159,320,1142,320C1125.5,320,1109,320,1092,320C1075.9,320,1059,320,1043,320C1026.2,320,1010,320,993,320C976.6,320,960,320,943,320C926.9,320,910,320,894,320C877.2,320,861,320,844,320C827.6,320,811,320,794,320C777.9,320,761,320,745,320C728.3,320,712,320,695,320C678.6,320,662,320,646,320C629,320,612,320,596,320C579.3,320,563,320,546,320C529.7,320,513,320,497,320C480,320,463,320,447,320C430.3,320,414,320,397,320C380.7,320,364,320,348,320C331,320,314,320,298,320C281.4,320,265,320,248,320C231.7,320,215,320,199,320C182.1,320,166,320,149,320C132.4,320,116,320,99,320C82.8,320,66,320,50,320C33.1,320,17,320,8,320L0,320Z"></path></svg>